<?xml version="1.0" encoding="UTF-8"?>
<svg width="700pt" height="700pt" version="1.1" viewBox="0 0 700 700" xmlns="http://www.w3.org/2000/svg" xmlns:xlink="http://www.w3.org/1999/xlink">
 <defs>
  <symbol id="u" overflow="visible">
   <path d="m18.766-1.125c-0.96875 0.5-1.9805 0.875-3.0312 1.125-1.043 0.25781-2.1367 0.39062-3.2812 0.39062-3.3984 0-6.0898-0.94531-8.0781-2.8438-1.9922-1.9062-2.9844-4.4844-2.9844-7.7344 0-3.2578 0.99219-5.8359 2.9844-7.7344 1.9883-1.9062 4.6797-2.8594 8.0781-2.8594 1.1445 0 2.2383 0.13281 3.2812 0.39062 1.0508 0.25 2.0625 0.625 3.0312 1.125v4.2188c-0.98047-0.65625-1.9453-1.1406-2.8906-1.4531-0.94922-0.3125-1.9492-0.46875-3-0.46875-1.875 0-3.3516 0.60547-4.4219 1.8125-1.0742 1.1992-1.6094 2.8555-1.6094 4.9688 0 2.1055 0.53516 3.7617 1.6094 4.9688 1.0703 1.1992 2.5469 1.7969 4.4219 1.7969 1.0508 0 2.0508-0.14844 3-0.45312 0.94531-0.3125 1.9102-0.80078 2.8906-1.4688z"/>
  </symbol>
  <symbol id="d" overflow="visible">
   <path d="m13.734-11.141c-0.4375-0.19531-0.87109-0.34375-1.2969-0.4375-0.41797-0.10156-0.83984-0.15625-1.2656-0.15625-1.2617 0-2.2305 0.40625-2.9062 1.2188-0.67969 0.80469-1.0156 1.9531-1.0156 3.4531v7.0625h-4.8906v-15.312h4.8906v2.5156c0.625-1 1.3438-1.7266 2.1562-2.1875 0.82031-0.46875 1.8008-0.70312 2.9375-0.70312 0.16406 0 0.34375 0.011719 0.53125 0.03125 0.19531 0.011719 0.47656 0.039062 0.84375 0.078125z"/>
  </symbol>
  <symbol id="a" overflow="visible">
   <path d="m17.641-7.7031v1.4062h-11.453c0.125 1.1484 0.53906 2.0078 1.25 2.5781 0.70703 0.57422 1.7031 0.85938 2.9844 0.85938 1.0312 0 2.082-0.14844 3.1562-0.45312 1.082-0.3125 2.1914-0.77344 3.3281-1.3906v3.7656c-1.1562 0.4375-2.3125 0.76562-3.4688 0.98438-1.1562 0.22656-2.3125 0.34375-3.4688 0.34375-2.7734 0-4.9297-0.70312-6.4688-2.1094-1.5312-1.4062-2.2969-3.3789-2.2969-5.9219 0-2.5 0.75391-4.4609 2.2656-5.8906 1.5078-1.4375 3.582-2.1562 6.2188-2.1562 2.4062 0 4.332 0.73047 5.7812 2.1875 1.4453 1.4492 2.1719 3.3828 2.1719 5.7969zm-5.0312-1.625c0-0.92578-0.27344-1.6719-0.8125-2.2344-0.54297-0.57031-1.25-0.85938-2.125-0.85938-0.94922 0-1.7188 0.26562-2.3125 0.79688s-0.96484 1.2969-1.1094 2.2969z"/>
  </symbol>
  <symbol id="i" overflow="visible">
   <path d="m9.2188-6.8906c-1.0234 0-1.793 0.17188-2.3125 0.51562-0.51172 0.34375-0.76562 0.85547-0.76562 1.5312 0 0.625 0.20703 1.1172 0.625 1.4688 0.41406 0.34375 0.98828 0.51562 1.7188 0.51562 0.92578 0 1.7031-0.32812 2.3281-0.98438 0.63281-0.66406 0.95312-1.4922 0.95312-2.4844v-0.5625zm7.4688-1.8438v8.7344h-4.9219v-2.2656c-0.65625 0.92969-1.3984 1.6055-2.2188 2.0312-0.82422 0.41406-1.8242 0.625-3 0.625-1.5859 0-2.8711-0.45703-3.8594-1.375-0.99219-0.92578-1.4844-2.1289-1.4844-3.6094 0-1.7891 0.61328-3.1016 1.8438-3.9375 1.2383-0.84375 3.1797-1.2656 5.8281-1.2656h2.8906v-0.39062c0-0.76953-0.30859-1.332-0.92188-1.6875-0.61719-0.36328-1.5703-0.54688-2.8594-0.54688-1.0547 0-2.0312 0.10547-2.9375 0.3125-0.89844 0.21094-1.7305 0.52344-2.5 0.9375v-3.7344c1.0391-0.25 2.0859-0.44141 3.1406-0.57812 1.0625-0.13281 2.125-0.20312 3.1875-0.20312 2.7578 0 4.75 0.54688 5.9688 1.6406 1.2266 1.0859 1.8438 2.8555 1.8438 5.3125z"/>
  </symbol>
  <symbol id="c" overflow="visible">
   <path d="m7.7031-19.656v4.3438h5.0469v3.5h-5.0469v6.5c0 0.71094 0.14062 1.1875 0.42188 1.4375s0.83594 0.375 1.6719 0.375h2.5156v3.5h-4.1875c-1.9375 0-3.3125-0.39844-4.125-1.2031-0.80469-0.8125-1.2031-2.1797-1.2031-4.1094v-6.5h-2.4219v-3.5h2.4219v-4.3438z"/>
  </symbol>
  <symbol id="h" overflow="visible">
   <path d="m12.766-13.078v-8.2031h4.9219v21.281h-4.9219v-2.2188c-0.66797 0.90625-1.4062 1.5703-2.2188 1.9844s-1.7578 0.625-2.8281 0.625c-1.8867 0-3.4336-0.75-4.6406-2.25-1.2109-1.5-1.8125-3.4258-1.8125-5.7812 0-2.3633 0.60156-4.2969 1.8125-5.7969 1.207-1.5 2.7539-2.25 4.6406-2.25 1.0625 0 2 0.21484 2.8125 0.64062 0.82031 0.42969 1.5664 1.0859 2.2344 1.9688zm-3.2188 9.9219c1.0391 0 1.8359-0.37891 2.3906-1.1406 0.55078-0.76953 0.82812-1.8828 0.82812-3.3438 0-1.457-0.27734-2.5664-0.82812-3.3281-0.55469-0.76953-1.3516-1.1562-2.3906-1.1562-1.043 0-1.8398 0.38672-2.3906 1.1562-0.55469 0.76172-0.82812 1.8711-0.82812 3.3281 0 1.4609 0.27344 2.5742 0.82812 3.3438 0.55078 0.76172 1.3477 1.1406 2.3906 1.1406z"/>
  </symbol>
  <symbol id="g" overflow="visible">
   <path d="m10.5-3.1562c1.0508 0 1.8516-0.37891 2.4062-1.1406 0.55078-0.76953 0.82812-1.8828 0.82812-3.3438 0-1.457-0.27734-2.5664-0.82812-3.3281-0.55469-0.76953-1.3555-1.1562-2.4062-1.1562-1.0547 0-1.8594 0.38672-2.4219 1.1562-0.55469 0.77344-0.82812 1.8828-0.82812 3.3281 0 1.4492 0.27344 2.5586 0.82812 3.3281 0.5625 0.77344 1.3672 1.1562 2.4219 1.1562zm-3.25-9.9219c0.67578-0.88281 1.4219-1.5391 2.2344-1.9688 0.82031-0.42578 1.7656-0.64062 2.8281-0.64062 1.8945 0 3.4453 0.75 4.6562 2.25 1.207 1.5 1.8125 3.4336 1.8125 5.7969 0 2.3555-0.60547 4.2812-1.8125 5.7812-1.2109 1.5-2.7617 2.25-4.6562 2.25-1.0625 0-2.0078-0.21094-2.8281-0.625-0.8125-0.42578-1.5586-1.0859-2.2344-1.9844v2.2188h-4.8906v-21.281h4.8906z"/>
  </symbol>
  <symbol id="f" overflow="visible">
   <path d="m0.34375-15.312h4.8906l4.125 10.391 3.5-10.391h4.8906l-6.4375 16.766c-0.64844 1.6953-1.4023 2.8828-2.2656 3.5625-0.86719 0.6875-2 1.0312-3.4062 1.0312h-2.8438v-3.2188h1.5312c0.83203 0 1.4375-0.13672 1.8125-0.40625 0.38281-0.26172 0.67969-0.73047 0.89062-1.4062l0.14062-0.42188z"/>
  </symbol>
  <symbol id="e" overflow="visible">
   <path d="m0.14062-20.406h18.812v3.9688h-6.7656v16.438h-5.2656v-16.438h-6.7812z"/>
  </symbol>
  <symbol id="t" overflow="visible">
   <path d="m2.3594-15.312h4.8906v15.312h-4.8906zm0-5.9688h4.8906v4h-4.8906z"/>
  </symbol>
  <symbol id="s" overflow="visible">
   <path d="m10.047-11.359c1.1016 0 1.8945-0.20312 2.375-0.60938 0.47656-0.41406 0.71875-1.0938 0.71875-2.0312 0-0.92578-0.24219-1.5859-0.71875-1.9844-0.48047-0.40625-1.2734-0.60938-2.375-0.60938h-2.2188v5.2344zm-2.2188 3.6406v7.7188h-5.25v-20.406h8.0312c2.6875 0 4.6562 0.45312 5.9062 1.3594 1.2578 0.89844 1.8906 2.3203 1.8906 4.2656 0 1.3555-0.32812 2.4648-0.98438 3.3281-0.64844 0.86719-1.625 1.5-2.9375 1.9062 0.71875 0.16797 1.3594 0.54297 1.9219 1.125 0.57031 0.57422 1.1484 1.4492 1.7344 2.625l2.8594 5.7969h-5.6094l-2.4844-5.0781c-0.5-1.0195-1.0117-1.7109-1.5312-2.0781-0.51172-0.375-1.1953-0.5625-2.0469-0.5625z"/>
  </symbol>
  <symbol id="b" overflow="visible">
   <path d="m9.6406-12.188c-1.0859 0-1.9141 0.39062-2.4844 1.1719-0.57422 0.78125-0.85938 1.9062-0.85938 3.375s0.28516 2.5938 0.85938 3.375c0.57031 0.77344 1.3984 1.1562 2.4844 1.1562 1.0625 0 1.875-0.38281 2.4375-1.1562 0.57031-0.78125 0.85938-1.9062 0.85938-3.375s-0.28906-2.5938-0.85938-3.375c-0.5625-0.78125-1.375-1.1719-2.4375-1.1719zm0-3.5c2.6328 0 4.6914 0.71484 6.1719 2.1406 1.4766 1.418 2.2188 3.3867 2.2188 5.9062 0 2.5117-0.74219 4.4805-2.2188 5.9062-1.4805 1.418-3.5391 2.125-6.1719 2.125-2.6484 0-4.7148-0.70703-6.2031-2.125-1.4922-1.4258-2.2344-3.3945-2.2344-5.9062 0-2.5195 0.74219-4.4883 2.2344-5.9062 1.4883-1.4258 3.5547-2.1406 6.2031-2.1406z"/>
  </symbol>
  <symbol id="r" overflow="visible">
   <path d="m12.422-21.281v3.2188h-2.7031c-0.6875 0-1.1719 0.125-1.4531 0.375-0.27344 0.25-0.40625 0.6875-0.40625 1.3125v1.0625h4.1875v3.5h-4.1875v11.812h-4.8906v-11.812h-2.4375v-3.5h2.4375v-1.0625c0-1.6641 0.46094-2.8984 1.3906-3.7031 0.92578-0.80078 2.3672-1.2031 4.3281-1.2031z"/>
  </symbol>
  <symbol id="q" overflow="visible">
   <path d="m16.547-12.766c0.61328-0.94531 1.3477-1.6719 2.2031-2.1719 0.85156-0.5 1.7891-0.75 2.8125-0.75 1.7578 0 3.0977 0.54688 4.0156 1.6406 0.92578 1.0859 1.3906 2.6562 1.3906 4.7188v9.3281h-4.9219v-7.9844-0.35938c0.007813-0.13281 0.015625-0.32031 0.015625-0.5625 0-1.082-0.16406-1.8633-0.48438-2.3438-0.3125-0.48828-0.82422-0.73438-1.5312-0.73438-0.92969 0-1.6484 0.38672-2.1562 1.1562-0.51172 0.76172-0.77344 1.8672-0.78125 3.3125v7.5156h-4.9219v-7.9844c0-1.6953-0.14844-2.7852-0.4375-3.2656-0.29297-0.48828-0.8125-0.73438-1.5625-0.73438-0.9375 0-1.6641 0.38672-2.1719 1.1562-0.51172 0.76172-0.76562 1.8594-0.76562 3.2969v7.5312h-4.9219v-15.312h4.9219v2.2344c0.60156-0.86328 1.2891-1.5156 2.0625-1.9531 0.78125-0.4375 1.6406-0.65625 2.5781-0.65625 1.0625 0 2 0.25781 2.8125 0.76562 0.8125 0.51172 1.4258 1.2305 1.8438 2.1562z"/>
  </symbol>
  <symbol id="p" overflow="visible">
   <path d="m17.75-9.3281v9.3281h-4.9219v-7.1094c0-1.3438-0.03125-2.2656-0.09375-2.7656s-0.16797-0.86719-0.3125-1.1094c-0.1875-0.3125-0.44922-0.55469-0.78125-0.73438-0.32422-0.17578-0.69531-0.26562-1.1094-0.26562-1.0234 0-1.8242 0.39844-2.4062 1.1875-0.58594 0.78125-0.875 1.8711-0.875 3.2656v7.5312h-4.8906v-21.281h4.8906v8.2031c0.73828-0.88281 1.5195-1.5391 2.3438-1.9688 0.83203-0.42578 1.75-0.64062 2.75-0.64062 1.7695 0 3.1133 0.54688 4.0312 1.6406 0.91406 1.0859 1.375 2.6562 1.375 4.7188z"/>
  </symbol>
  <symbol id="o" overflow="visible">
   <path d="m2.5781-20.406h5.875l7.4219 14v-14h4.9844v20.406h-5.875l-7.4219-14v14h-4.9844z"/>
  </symbol>
  <symbol id="n" overflow="visible">
   <path d="m2.1875-5.9688v-9.3438h4.9219v1.5312c0 0.83594-0.007813 1.875-0.015625 3.125-0.011719 1.25-0.015625 2.0859-0.015625 2.5 0 1.2422 0.03125 2.1328 0.09375 2.6719 0.070313 0.54297 0.17969 0.93359 0.32812 1.1719 0.20703 0.32422 0.47266 0.57422 0.79688 0.75 0.32031 0.16797 0.69141 0.25 1.1094 0.25 1.0195 0 1.8203-0.39062 2.4062-1.1719 0.58203-0.78125 0.875-1.8672 0.875-3.2656v-7.5625h4.8906v15.312h-4.8906v-2.2188c-0.74219 0.89844-1.5234 1.5586-2.3438 1.9844-0.82422 0.41406-1.7344 0.625-2.7344 0.625-1.7617 0-3.1055-0.53906-4.0312-1.625-0.92969-1.082-1.3906-2.6602-1.3906-4.7344z"/>
  </symbol>
  <symbol id="m" overflow="visible">
   <path d="m17.75-9.3281v9.3281h-4.9219v-7.1406c0-1.3203-0.03125-2.2344-0.09375-2.7344s-0.16797-0.86719-0.3125-1.1094c-0.1875-0.3125-0.44922-0.55469-0.78125-0.73438-0.32422-0.17578-0.69531-0.26562-1.1094-0.26562-1.0234 0-1.8242 0.39844-2.4062 1.1875-0.58594 0.78125-0.875 1.8711-0.875 3.2656v7.5312h-4.8906v-15.312h4.8906v2.2344c0.73828-0.88281 1.5195-1.5391 2.3438-1.9688 0.83203-0.42578 1.75-0.64062 2.75-0.64062 1.7695 0 3.1133 0.54688 4.0312 1.6406 0.91406 1.0859 1.375 2.6562 1.375 4.7188z"/>
  </symbol>
  <symbol id="l" overflow="visible">
   <path d="m2.5781-20.406h8.7344c2.5938 0 4.582 0.57812 5.9688 1.7344 1.3945 1.1484 2.0938 2.7891 2.0938 4.9219 0 2.1367-0.69922 3.7812-2.0938 4.9375-1.3867 1.1562-3.375 1.7344-5.9688 1.7344h-3.4844v7.0781h-5.25zm5.25 3.8125v5.7031h2.9219c1.0195 0 1.8047-0.25 2.3594-0.75 0.5625-0.5 0.84375-1.2031 0.84375-2.1094 0-0.91406-0.28125-1.6172-0.84375-2.1094-0.55469-0.48828-1.3398-0.73438-2.3594-0.73438z"/>
  </symbol>
  <symbol id="k" overflow="visible">
   <path d="m2.3594-15.312h4.8906v15.031c0 2.0508-0.49609 3.6172-1.4844 4.7031-0.98047 1.082-2.4062 1.625-4.2812 1.625h-2.4219v-3.2188h0.85938c0.92578 0 1.5625-0.21094 1.9062-0.625 0.35156-0.41797 0.53125-1.2461 0.53125-2.4844zm0-5.9688h4.8906v4h-4.8906z"/>
  </symbol>
  <symbol id="j" overflow="visible">
   <path d="m14.719-14.828v3.9844c-0.65625-0.45703-1.3242-0.79688-2-1.0156-0.66797-0.21875-1.3594-0.32812-2.0781-0.32812-1.3672 0-2.4336 0.40234-3.2031 1.2031-0.76172 0.79297-1.1406 1.9062-1.1406 3.3438 0 1.4297 0.37891 2.543 1.1406 3.3438 0.76953 0.79297 1.8359 1.1875 3.2031 1.1875 0.75781 0 1.4844-0.10938 2.1719-0.32812 0.6875-0.22656 1.3203-0.56641 1.9062-1.0156v4c-0.76172 0.28125-1.5391 0.48828-2.3281 0.625-0.78125 0.14453-1.5742 0.21875-2.375 0.21875-2.7617 0-4.9219-0.70703-6.4844-2.125-1.5547-1.4141-2.3281-3.3828-2.3281-5.9062 0-2.5312 0.77344-4.5039 2.3281-5.9219 1.5625-1.4141 3.7227-2.125 6.4844-2.125 0.80078 0 1.5938 0.074219 2.375 0.21875 0.78125 0.13672 1.5547 0.35156 2.3281 0.64062z"/>
  </symbol>
 </defs>
 <g>
  <path d="m627.63 341.57c0 2.5938-0.37891 4.2188-1.1992 4.8711-0.8125 0.62891-2.6719 2.2461-5.6172 4.8828-6.1953 5.1914-13.199 11.312-20.988 18.277-7.8164 7.0117-16.027 13.898-24.664 20.715-8.6289 6.8555-17.422 13.164-26.371 19.047-8.9414 5.8516-17.652 10.383-26.137 13.637-1.2812 0.66016-4.5703 1.8984-9.7539 3.6797-5.2305 1.7734-10.73 3.8359-16.613 6.082-5.8477 2.2852-11.379 4.4062-16.613 6.3516-5.1914 1.9727-8.4336 3.0977-9.7539 3.4062-1.9375 0.96875-5.6172 2.8672-10.961 5.6172-5.3828 2.75-10.992 5.7695-16.883 9.0234-5.8477 3.2461-11.457 6.2734-16.844 9.0156-5.3438 2.7812-9.0156 4.8008-10.961 6.1133-5.2266 3.2539-10.41 7.3242-15.637 12.203-5.1953 4.8789-10.5 9.5664-15.883 14.133-5.3438 4.5625-10.961 8.4375-16.844 11.688-5.8477 3.2578-12.199 4.8867-19.051 4.8867-4.2188 0-6.6602-0.96875-7.3203-2.9062-0.65625-1.9805-0.96484-4.8828-0.96484-8.793 0-10.062 1.6172-19.738 4.8711-29.043 3.2539-9.25 4.8789-18.781 4.8789-28.539h-5.8477c-0.35156 0-3.2539 0.92578-8.7852 2.7109-5.5391 1.7734-12.203 3.8633-20.02 6.3125-7.8164 2.4414-15.719 4.9961-23.695 7.582-7.9805 2.5977-14.566 4.7266-19.785 6.3516-7.7891 2.5977-15.523 6.0039-23.16 10.227-7.6602 4.2227-15.406 8.2812-23.195 12.195-7.8164 3.9141-15.641 7.2461-23.465 9.9922-7.7852 2.7812-15.949 4.1445-24.387 4.1445-4.2617 0-8.6367-0.15234-13.199-0.46484-4.5352-0.35156-8.1367-2.5977-10.73-6.8555v-11.195c0-5.2305 0.46094-9.7539 1.4727-13.664 0.96875-3.9141 2.2773-7.75 3.9102-11.465 1.625-3.7578 3.4062-7.6289 5.3477-11.699 1.9727-4.0664 3.9023-8.707 5.8867-13.934 1.9336-5.1953 3.3984-9.918 4.375-14.133 0.96484-4.2227 1.7031-8.2812 2.2109-12.195 0.46094-3.875 0.73438-7.9414 0.73438-12.195v-14.637-4.375c0-2.2852-0.078126-4.3789-0.27344-6.3516-0.15234-1.9375-0.30859-3.7227-0.46094-5.3438-0.15625-1.6289-0.28125-2.5977-0.28125-2.9453l-2.9062-2.9414c-1.9727 1.6289-5.2266 4.6406-9.75 9.0625-4.5703 4.375-9.4531 9.0234-14.676 13.898-5.1914 4.8789-10.152 9.4805-14.867 13.898-4.7266 4.375-8.0586 7.3906-10.031 9.0234-5.1914 4.5312-11.465 9.0156-18.781 13.402-7.3242 4.4062-14.598 6.5781-21.723 6.5781-3.293 0-6.1211-0.23047-8.5625-0.73438-2.4414-0.44922-3.6797-2.6641-3.6797-6.5703 0-0.30859 0.078125-0.81641 0.27344-1.4727 0.15234-0.61719 0.23047-1.1211 0.23047-1.4336 7.4766-6.5 13.59-13.52 18.316-20.988 4.7305-7.4688 8.9492-15.223 12.707-23.156 3.7109-7.9805 7.4766-15.953 11.227-23.93 3.7188-7.9336 8.2109-15.836 13.402-23.656v-1.4766c0-2.9062-1.125-4.957-3.4062-6.082-2.2852-1.1211-3.4062-3.332-3.4062-6.5781l0.003906-5.3438c0-1.3086 0.15234-3.5234 0.46484-6.625 0.34766-3.0586 0.73438-6.3125 1.2383-9.7539 0.50781-3.4062 0.89453-6.6523 1.2422-9.7148 0.3125-3.0977 0.46484-5.3047 0.46484-6.625 0.65625-0.61719 1.7812-1.7812 3.4062-3.4062s2.6367-2.7422 2.9414-3.4062c0.3125 0 0.50391-0.5 0.50391-1.4727 0-0.96875-0.19141-1.625-0.50391-1.9375-0.30859-1.9766-1.3164-5.1914-2.9414-9.7539-1.625-4.5703-3.2539-9.4453-4.8828-14.637-1.6172-5.1914-3.2461-10.062-4.8711-14.633-1.6289-4.5625-2.75-7.7852-3.4062-9.7617-1.3203-3.5625-2.8672-6.8164-4.6484-9.7539-1.7812-2.9062-3.5664-5.8477-5.3828-8.7539-1.7812-2.9414-3.3359-5.8867-4.6094-8.7852-1.3086-2.9414-1.9766-6.3516-1.9766-10.266v-8.2812c2.2852-1.9805 4.4141-3.0234 6.3555-3.1758 1.9727-0.15234 4.2188-0.23047 6.8555-0.23047 8.125 0 15.68 2.082 22.691 6.3516 7.0039 4.2188 13.59 8.5898 19.785 13.164 1.6289 1.2773 4.457 3.4844 8.5195 6.5859 4.0977 3.0586 8.4062 6.3125 12.969 9.7539 4.5352 3.4062 8.8633 6.6602 12.93 9.7539 4.0781 3.0586 6.8945 5.2656 8.5195 6.5859h14.168c0-1.625-0.078126-4.6484-0.23047-9.0234-0.15234-4.4141-0.3125-8.9492-0.50391-13.664-0.15234-4.7266-0.30859-9.2578-0.46484-13.668-0.15234-4.375-0.26953-7.3984-0.26953-9.0156 0.34766-5.8516 1.8203-11.391 4.4141-16.582 2.5938-5.1875 5.3828-10.336 8.2812-15.367 2.9414-5.0352 5.5391-10.266 7.8164-15.602 2.2852-5.3867 3.4102-11.156 3.4102-17.316 0-7.1562-2.1719-12.773-6.5898-16.844-4.3672-4.0664-9.6836-7.1562-15.875-9.25-6.1562-2.1328-12.699-3.6719-19.512-4.6484-6.8555-0.96875-12.699-1.9336-17.586-2.9336-1.3086-0.32031-3.168-1.7812-5.6094-4.3789-2.4414-2.5977-3.8359-4.375-4.1367-5.3438-1.3203-3.6055-0.20312-6.8555 3.3984-9.7617 3.5664-2.9414 8.7148-5.6055 15.371-8.0547 6.7031-2.4414 14.023-4.6484 21.996-6.5781 7.9805-1.9805 15.602-3.5273 22.926-4.6523 7.3203-1.1211 13.59-2.0508 18.816-2.6719 5.1875-0.65625 8.1328-0.96875 8.7852-0.96875 29.625 0 58.508 4.3008 86.664 12.898 28.145 8.6367 53.977 21.723 77.402 39.266 0.65625 0.65625 2.2773 1.8125 4.8789 3.4453 2.5938 1.625 4.2227 2.75 4.8711 3.4062 11.082 6.1602 22.152 12.117 33.23 17.809 11.039 5.6992 21.875 11.621 32.453 17.781 10.574 6.1953 20.832 13.008 30.777 20.484 9.918 7.5078 19.281 16.105 28.078 25.867 12.355 13.664 22.848 28.145 31.477 43.406 8.6406 15.289 16.695 31.242 24.164 47.82 1.9766 4.2227 4.2617 8.3594 6.8555 12.434 2.5977 4.0703 5.1133 8.1328 7.5586 12.203 2.4375 4.0664 4.4844 8.2812 6.1094 12.699 1.6289 4.375 2.4453 8.8242 2.4453 13.402v4.8789c-0.66016-0.3125-1.707-0.89063-3.1758-1.707-1.4727-0.8125-2.5195-1.2422-3.1758-1.2422-0.30859 0-0.65625-0.078125-0.96484-0.23047-0.35156-0.15234-0.66797-0.23438-0.97266-0.23438-0.35156 0-0.65625 0.085937-0.96875 0.23438-0.34766 0.15234-0.50391 0.23047-0.50391 0.23047-0.30859 0-0.88672 0.42969-1.7031 1.2422-0.81641 0.81641-1.3945 1.3945-1.707 1.707v1.9375c0 1.9766 0.54297 3.7578 1.707 5.3828 1.1211 1.625 2.2773 3.2539 3.3984 4.8789 1.125 1.6289 2.2852 3.332 3.4102 5.1133 1.1641 1.7383 1.707 3.7969 1.707 6.0781z" fill-rule="evenodd"/>
 </g>
</svg>
