<?xml version="1.0" encoding="UTF-8"?>
<svg width="700pt" fill="white" height="700pt" version="1.1" viewBox="0 0 700 700" xmlns="http://www.w3.org/2000/svg" xmlns:xlink="http://www.w3.org/1999/xlink">
 <defs>
  <symbol id="t" overflow="visible">
   <path d="m3.6562-0.21875c-0.1875 0.09375-0.38672 0.16797-0.59375 0.21875-0.19922 0.050781-0.40625 0.078125-0.625 0.078125-0.66797 0-1.1992-0.17969-1.5938-0.54688-0.38672-0.375-0.57812-0.87891-0.57812-1.5156 0-0.64453 0.19141-1.1484 0.57812-1.5156 0.39453-0.375 0.92578-0.5625 1.5938-0.5625 0.21875 0 0.42578 0.027344 0.625 0.078125 0.20703 0.054687 0.40625 0.125 0.59375 0.21875v0.82812c-0.1875-0.125-0.375-0.21875-0.5625-0.28125-0.17969-0.0625-0.37109-0.09375-0.57812-0.09375-0.36719 0-0.65625 0.12109-0.875 0.35938-0.21094 0.23047-0.3125 0.55469-0.3125 0.96875 0 0.40625 0.10156 0.73047 0.3125 0.96875 0.21875 0.23047 0.50781 0.34375 0.875 0.34375 0.20703 0 0.39844-0.023437 0.57812-0.078125 0.1875-0.0625 0.375-0.16016 0.5625-0.29688z"/>
  </symbol>
  <symbol id="d" overflow="visible">
   <path d="m2.6875-2.1719c-0.085938-0.039063-0.16797-0.070313-0.25-0.09375-0.085938-0.019531-0.16797-0.03125-0.25-0.03125-0.25 0-0.44531 0.085937-0.57812 0.25-0.125 0.15625-0.1875 0.38281-0.1875 0.67188v1.375h-0.96875v-2.9844h0.96875v0.48438c0.11328-0.19531 0.25-0.33594 0.40625-0.42188 0.16406-0.09375 0.35938-0.14062 0.57812-0.14062h0.10938c0.039063 0 0.09375 0.007812 0.15625 0.015625z"/>
  </symbol>
  <symbol id="a" overflow="visible">
   <path d="m3.4375-1.5v0.26562h-2.2344c0.03125 0.23047 0.11328 0.40234 0.25 0.51562 0.13281 0.10547 0.32812 0.15625 0.57812 0.15625 0.20703 0 0.41406-0.023438 0.625-0.078125 0.20703-0.0625 0.42188-0.15625 0.64062-0.28125v0.73438c-0.21875 0.09375-0.44531 0.16406-0.67188 0.20312-0.23047 0.039062-0.45312 0.0625-0.67188 0.0625-0.54297 0-0.96484-0.13281-1.2656-0.40625-0.30469-0.28125-0.45312-0.67188-0.45312-1.1719 0-0.47656 0.14453-0.85938 0.4375-1.1406 0.30078-0.28125 0.70703-0.42188 1.2188-0.42188 0.46875 0 0.84375 0.14062 1.125 0.42188s0.42188 0.66406 0.42188 1.1406zm-0.96875-0.32812c0-0.17578-0.058594-0.31641-0.17188-0.42188-0.10547-0.11328-0.24219-0.17188-0.40625-0.17188-0.1875 0-0.33984 0.054687-0.45312 0.15625-0.11719 0.10547-0.1875 0.25-0.21875 0.4375z"/>
  </symbol>
  <symbol id="j" overflow="visible">
   <path d="m1.7969-1.3438c-0.19922 0-0.35156 0.039062-0.45312 0.10938-0.09375 0.0625-0.14062 0.16406-0.14062 0.29688 0 0.11719 0.035156 0.21094 0.10938 0.28125 0.082031 0.0625 0.19531 0.09375 0.34375 0.09375 0.17578 0 0.32812-0.0625 0.45312-0.1875s0.1875-0.28516 0.1875-0.48438v-0.10938zm1.4688-0.35938v1.7031h-0.96875v-0.4375c-0.125 0.17969-0.27344 0.30859-0.4375 0.39062-0.15625 0.082031-0.35156 0.125-0.57812 0.125-0.3125 0-0.57031-0.085938-0.76562-0.26562-0.1875-0.1875-0.28125-0.42188-0.28125-0.70312 0-0.35156 0.11719-0.61328 0.35938-0.78125 0.23828-0.16406 0.61719-0.25 1.1406-0.25h0.5625v-0.0625c0-0.15625-0.0625-0.26562-0.1875-0.32812-0.11719-0.070312-0.29688-0.10938-0.54688-0.10938-0.21094 0-0.40234 0.023437-0.57812 0.0625-0.17969 0.042969-0.33984 0.10156-0.48438 0.17188v-0.71875c0.19531-0.050781 0.39844-0.085938 0.60938-0.10938 0.20703-0.03125 0.41406-0.046875 0.625-0.046875 0.53906 0 0.92969 0.10938 1.1719 0.32812 0.23828 0.21094 0.35938 0.55469 0.35938 1.0312z"/>
  </symbol>
  <symbol id="c" overflow="visible">
   <path d="m1.5-3.8438v0.85938h0.98438v0.67188h-0.98438v1.2812c0 0.13672 0.023438 0.23047 0.078125 0.28125 0.0625 0.042969 0.17578 0.0625 0.34375 0.0625h0.48438v0.6875h-0.8125c-0.38672 0-0.65625-0.078125-0.8125-0.23438s-0.23438-0.42188-0.23438-0.79688v-1.2812h-0.46875v-0.67188h0.46875v-0.85938z"/>
  </symbol>
  <symbol id="i" overflow="visible">
   <path d="m2.5-2.5469v-1.6094h0.95312v4.1562h-0.95312v-0.4375c-0.13672 0.17969-0.28125 0.30859-0.4375 0.39062-0.15625 0.082031-0.33984 0.125-0.54688 0.125-0.375 0-0.68359-0.14453-0.92188-0.4375-0.23047-0.28906-0.34375-0.67188-0.34375-1.1406 0-0.45703 0.11328-0.83203 0.34375-1.125 0.23828-0.28906 0.54688-0.4375 0.92188-0.4375 0.19531 0 0.375 0.042969 0.53125 0.125 0.16406 0.085938 0.31641 0.21484 0.45312 0.39062zm-0.64062 1.9375c0.20703 0 0.36328-0.070313 0.46875-0.21875 0.11328-0.15625 0.17188-0.37891 0.17188-0.67188 0-0.28125-0.058594-0.49219-0.17188-0.64062-0.10547-0.15625-0.26172-0.23438-0.46875-0.23438-0.19922 0-0.35547 0.078125-0.46875 0.23438-0.10547 0.14844-0.15625 0.35938-0.15625 0.64062 0 0.29297 0.050781 0.51562 0.15625 0.67188 0.11328 0.14844 0.26953 0.21875 0.46875 0.21875z"/>
  </symbol>
  <symbol id="h" overflow="visible">
   <path d="m2.0469-0.60938c0.20703 0 0.36328-0.070313 0.46875-0.21875 0.11328-0.15625 0.17188-0.37891 0.17188-0.67188 0-0.28125-0.058594-0.49219-0.17188-0.64062-0.10547-0.15625-0.26172-0.23438-0.46875-0.23438-0.19922 0-0.35547 0.078125-0.46875 0.23438-0.10547 0.14844-0.15625 0.35938-0.15625 0.64062 0 0.29297 0.050781 0.51562 0.15625 0.67188 0.11328 0.14844 0.26953 0.21875 0.46875 0.21875zm-0.625-1.9375c0.125-0.17578 0.26562-0.30469 0.42188-0.39062 0.16406-0.082031 0.35156-0.125 0.5625-0.125 0.36328 0 0.66406 0.14844 0.90625 0.4375 0.23828 0.29297 0.35938 0.66797 0.35938 1.125 0 0.46875-0.12109 0.85156-0.35938 1.1406-0.24219 0.29297-0.54297 0.4375-0.90625 0.4375-0.21094 0-0.39844-0.042969-0.5625-0.125-0.15625-0.082031-0.29688-0.21094-0.42188-0.39062v0.4375h-0.96875v-4.1562h0.96875z"/>
  </symbol>
  <symbol id="g" overflow="visible">
   <path d="m0.0625-2.9844h0.95312l0.8125 2.0156 0.6875-2.0156h0.95312l-1.2656 3.2656c-0.125 0.33203-0.27344 0.56641-0.4375 0.70312-0.16797 0.13281-0.39062 0.20312-0.67188 0.20312h-0.54688v-0.64062h0.29688c0.16406 0 0.28516-0.027344 0.35938-0.078125 0.070313-0.054688 0.12891-0.14062 0.17188-0.26562l0.03125-0.09375z"/>
  </symbol>
  <symbol id="f" overflow="visible">
   <path d="m0.5-3.9844h1.0312v3.5938c0 0.5-0.13672 0.86719-0.40625 1.1094-0.27344 0.25-0.67969 0.375-1.2188 0.375h-0.21875v-0.78125h0.17188c0.20703 0 0.36328-0.0625 0.46875-0.1875 0.11328-0.11719 0.17188-0.28516 0.17188-0.51562z"/>
  </symbol>
  <symbol id="s" overflow="visible">
   <path d="m0.45312-2.9844h0.96875v2.9844h-0.96875zm0-1.1719h0.96875v0.78125h-0.96875z"/>
  </symbol>
  <symbol id="e" overflow="visible">
   <path d="m3.4688-1.8281v1.8281h-0.96875v-1.3906c0-0.25781-0.007812-0.4375-0.015625-0.53125-0.011719-0.10156-0.03125-0.17578-0.0625-0.21875-0.03125-0.0625-0.085937-0.10938-0.15625-0.14062-0.0625-0.039062-0.13281-0.0625-0.20312-0.0625-0.21094 0-0.37109 0.078125-0.48438 0.23438-0.10547 0.15625-0.15625 0.37109-0.15625 0.64062v1.4688h-0.96875v-2.9844h0.96875v0.4375c0.13281-0.17578 0.28516-0.30469 0.45312-0.39062 0.16406-0.082031 0.34375-0.125 0.53125-0.125 0.34375 0 0.60156 0.10938 0.78125 0.32812 0.1875 0.21094 0.28125 0.51172 0.28125 0.90625z"/>
  </symbol>
  <symbol id="b" overflow="visible">
   <path d="m1.875-2.375c-0.21094 0-0.37109 0.078125-0.48438 0.23438-0.10547 0.14844-0.15625 0.35938-0.15625 0.64062 0 0.29297 0.050781 0.51562 0.15625 0.67188 0.11328 0.14844 0.27344 0.21875 0.48438 0.21875 0.20703 0 0.36719-0.070313 0.48438-0.21875 0.11328-0.15625 0.17188-0.37891 0.17188-0.67188 0-0.28125-0.058594-0.49219-0.17188-0.64062-0.11719-0.15625-0.27734-0.23438-0.48438-0.23438zm0-0.6875c0.51953 0 0.92188 0.14062 1.2031 0.42188 0.28906 0.27344 0.4375 0.65234 0.4375 1.1406 0 0.5-0.14844 0.89062-0.4375 1.1719-0.28125 0.27344-0.68359 0.40625-1.2031 0.40625-0.51172 0-0.91406-0.13281-1.2031-0.40625-0.29297-0.28125-0.4375-0.67188-0.4375-1.1719 0-0.48828 0.14453-0.86719 0.4375-1.1406 0.28906-0.28125 0.69141-0.42188 1.2031-0.42188z"/>
  </symbol>
  <symbol id="r" overflow="visible">
   <path d="m2.4219-4.1562v0.625h-0.51562c-0.13672 0-0.23438 0.027344-0.29688 0.078125-0.054687 0.054687-0.078125 0.13672-0.078125 0.25v0.21875h0.82812v0.67188h-0.82812v2.3125h-0.95312v-2.3125h-0.46875v-0.67188h0.46875v-0.21875c0-0.32031 0.085937-0.5625 0.26562-0.71875 0.1875-0.15625 0.47266-0.23438 0.85938-0.23438z"/>
  </symbol>
  <symbol id="q" overflow="visible">
   <path d="m3.2344-2.5c0.11328-0.17578 0.25391-0.3125 0.42188-0.40625 0.16406-0.10156 0.35156-0.15625 0.5625-0.15625 0.33203 0 0.58594 0.10938 0.76562 0.32812 0.1875 0.21094 0.28125 0.51172 0.28125 0.90625v1.8281h-0.96875v-1.5625c0.007813-0.019531 0.015625-0.039062 0.015625-0.0625v-0.10938c0-0.21875-0.03125-0.375-0.09375-0.46875s-0.16406-0.14062-0.29688-0.14062c-0.1875 0-0.33594 0.078125-0.4375 0.23438-0.09375 0.14844-0.14062 0.35938-0.14062 0.64062v1.4688h-0.96875v-1.5625c0-0.33203-0.03125-0.54688-0.09375-0.64062-0.054688-0.09375-0.15234-0.14062-0.29688-0.14062-0.17969 0-0.32031 0.078125-0.42188 0.23438-0.09375 0.14844-0.14062 0.35938-0.14062 0.64062v1.4688h-0.96875v-2.9844h0.96875v0.4375c0.11328-0.17578 0.24219-0.30469 0.39062-0.39062 0.15625-0.082031 0.32812-0.125 0.51562-0.125 0.20703 0 0.39062 0.054688 0.54688 0.15625 0.15625 0.09375 0.27344 0.23047 0.35938 0.40625z"/>
  </symbol>
  <symbol id="p" overflow="visible">
   <path d="m3.4688-1.8281v1.8281h-0.96875v-1.3906c0-0.25781-0.007812-0.4375-0.015625-0.53125-0.011719-0.10156-0.03125-0.17578-0.0625-0.21875-0.03125-0.0625-0.085937-0.10938-0.15625-0.14062-0.0625-0.039062-0.13281-0.0625-0.20312-0.0625-0.21094 0-0.37109 0.078125-0.48438 0.23438-0.10547 0.15625-0.15625 0.37109-0.15625 0.64062v1.4688h-0.96875v-4.1562h0.96875v1.6094c0.13281-0.17578 0.28516-0.30469 0.45312-0.39062 0.16406-0.082031 0.34375-0.125 0.53125-0.125 0.34375 0 0.60156 0.10938 0.78125 0.32812 0.1875 0.21094 0.28125 0.51172 0.28125 0.90625z"/>
  </symbol>
  <symbol id="o" overflow="visible">
   <path d="m0.5-3.9844h1.1562l1.4375 2.7344v-2.7344h0.98438v3.9844h-1.1562l-1.4375-2.7344v2.7344h-0.98438z"/>
  </symbol>
  <symbol id="n" overflow="visible">
   <path d="m0.42188-1.1719v-1.8125h0.96875v0.29688 0.60938 0.48438c0 0.24219 0.003906 0.41797 0.015625 0.53125 0.007812 0.10547 0.03125 0.17969 0.0625 0.21875 0.039062 0.0625 0.09375 0.11719 0.15625 0.15625 0.0625 0.03125 0.13281 0.046875 0.21875 0.046875 0.19531 0 0.35156-0.078125 0.46875-0.23438 0.11328-0.15625 0.17188-0.36719 0.17188-0.64062v-1.4688h0.95312v2.9844h-0.95312v-0.4375c-0.14844 0.17969-0.30469 0.30859-0.46875 0.39062-0.15625 0.082031-0.33594 0.125-0.53125 0.125-0.34375 0-0.60938-0.10156-0.79688-0.3125-0.17969-0.21875-0.26562-0.53125-0.26562-0.9375z"/>
  </symbol>
  <symbol id="m" overflow="visible">
   <path d="m0.5-3.9844h1.7031c0.50781 0 0.89844 0.11719 1.1719 0.34375 0.26953 0.21875 0.40625 0.53906 0.40625 0.95312 0 0.41797-0.13672 0.74219-0.40625 0.96875-0.27344 0.21875-0.66406 0.32812-1.1719 0.32812h-0.67188v1.3906h-1.0312zm1.0312 0.75v1.1094h0.5625c0.19531 0 0.34766-0.046875 0.45312-0.14062 0.11328-0.10156 0.17188-0.24219 0.17188-0.42188 0-0.17578-0.058594-0.3125-0.17188-0.40625-0.10547-0.09375-0.25781-0.14062-0.45312-0.14062z"/>
  </symbol>
  <symbol id="l" overflow="visible">
   <path d="m0.45312-2.9844h0.96875v2.9375c0 0.39453-0.10156 0.69531-0.29688 0.90625-0.1875 0.21875-0.46484 0.32812-0.82812 0.32812h-0.48438v-0.64062h0.17188c0.17578 0 0.29688-0.042969 0.35938-0.125 0.070312-0.074219 0.10938-0.23047 0.10938-0.46875zm0-1.1719h0.96875v0.78125h-0.96875z"/>
  </symbol>
  <symbol id="k" overflow="visible">
   <path d="m2.875-2.8906v0.76562c-0.125-0.082031-0.25781-0.14453-0.39062-0.1875-0.13672-0.039062-0.27344-0.0625-0.40625-0.0625-0.27344 0-0.48047 0.078125-0.625 0.23438-0.14844 0.15625-0.21875 0.37109-0.21875 0.64062 0 0.28125 0.070313 0.5 0.21875 0.65625 0.14453 0.15625 0.35156 0.23438 0.625 0.23438 0.14453 0 0.28516-0.019531 0.42188-0.0625 0.13281-0.039063 0.25781-0.10938 0.375-0.20312v0.78125c-0.14844 0.0625-0.29688 0.10156-0.45312 0.125-0.15625 0.03125-0.3125 0.046875-0.46875 0.046875-0.54297 0-0.96484-0.13281-1.2656-0.40625-0.30469-0.28125-0.45312-0.67188-0.45312-1.1719 0-0.48828 0.14844-0.86719 0.45312-1.1406 0.30078-0.28125 0.72266-0.42188 1.2656-0.42188 0.15625 0 0.3125 0.015625 0.46875 0.046875 0.15625 0.023437 0.30469 0.0625 0.45312 0.125z"/>
  </symbol>
 </defs>
 <g>
  <path d="m211.75 467.7c-14.219-0.019531-28.312-2.6758-41.562-7.832-23.242-8.8711-42.738-25.445-55.234-46.953-0.83203-1.2578-1.1055-2.8008-0.76172-4.2695 0.34766-1.4648 1.2812-2.7266 2.5859-3.4805 1.3047-0.75391 2.8594-0.9375 4.3047-0.50781 1.4453 0.43359 2.6445 1.4414 3.3203 2.7891 11.262 19.367 28.824 34.285 49.754 42.273 19.277 7.5977 40.414 9.1055 60.574 4.3203 24.914-6.1797 46.289-22.719 60.156-46.551 1.5938-2.4141 4.7969-3.168 7.3008-1.7188s3.4492 4.6016 2.1484 7.1875c-15.422 26.414-39.211 44.758-67.016 51.656-8.3672 2.0586-16.953 3.0938-25.57 3.0859z"/>
  <path d="m487.65 467.7c-8.6445 0.011719-17.254-1.0234-25.648-3.0859-27.805-6.9023-51.594-25.242-67.016-51.656-0.82812-1.2578-1.1055-2.8008-0.75781-4.2695 0.34375-1.4648 1.2773-2.7227 2.582-3.4805 1.3047-0.75391 2.8633-0.9375 4.3047-0.50391 1.4453 0.42969 2.6484 1.4375 3.3242 2.7852 13.914 23.832 35.297 40.371 60.156 46.551 20.156 4.7852 41.297 3.2773 60.57-4.3203 20.934-7.9883 38.492-22.906 49.754-42.273 1.5977-2.418 4.7969-3.1719 7.3047-1.7188 2.5039 1.4492 3.4453 4.5977 2.1445 7.1875-12.496 21.508-31.992 38.082-55.234 46.953-13.227 5.1484-27.293 7.8008-41.484 7.832z"/>
  <path d="m351.02 304.06c-1.4688 0-2.875-0.58984-3.9062-1.6406-1.0273-1.0508-1.5898-2.4688-1.5625-3.9375l1.0938-51.875c-21.797-20.969-33.828-47.754-33.828-75.688 0-63.492 61.566-115.14 137.23-115.14 75.664 0 137.3 51.648 137.3 115.14s-61.621 115.14-137.3 115.14c-17.867 0.046875-35.617-2.9141-52.5-8.75l-43.75 25.945c-0.83984 0.51172-1.7969 0.79297-2.7812 0.80859zm99.031-237.34c-69.641 0-126.3 46.746-126.3 104.2 0 25.617 11.398 50.246 32.078 69.355v-0.003906c1.1484 1.0664 1.7852 2.5703 1.75 4.1367l-0.89844 44.473 37.539-22.246v-0.003907c1.4141-0.83594 3.1289-0.99219 4.6719-0.42578 16.395 5.9609 33.711 8.9766 51.156 8.9141 69.641 0 126.3-46.746 126.3-104.2 0-57.453-56.668-104.2-126.3-104.2z"/>
  <path d="m393.12 204.12h-0.066406l-27.812-0.35156v0.003906c-2.0078-0.023438-3.8438-1.1484-4.7773-2.9258-0.93359-1.7812-0.81641-3.9297 0.30469-5.5938l22.727-33.84-17.719-0.23047c-3.0195-0.039062-5.4336-2.5195-5.3945-5.543 0.039062-3.0195 2.5195-5.4336 5.5391-5.3945l27.812 0.35156v-0.003906c2.0117 0.023438 3.8438 1.1484 4.7773 2.9258 0.93359 1.7812 0.81641 3.9297-0.30469 5.5938l-22.727 33.906 17.707 0.21875c3.0195 0.019531 5.4531 2.4844 5.4375 5.5039-0.019531 3.0195-2.4805 5.4531-5.5039 5.4336z"/>
  <path d="m461.76 204.21h-0.066406l-34.113-0.4375c-2.0039-0.027344-3.8359-1.1523-4.7695-2.9336-0.92969-1.7773-0.8125-3.9219 0.30859-5.5859l29.137-43.398-23.996-0.30469v-0.003907c-1.4492-0.007812-2.8398-0.59375-3.8555-1.625-1.0195-1.0312-1.5898-2.4258-1.582-3.8789 0.019532-3.0195 2.4844-5.4531 5.5039-5.4336h0.066406l34.113 0.4375c2.0078 0.027344 3.8359 1.1523 4.7695 2.9297 0.92969 1.7773 0.8125 3.9258-0.30859 5.5898l-29.137 43.398 24.008 0.30469v0.003906c3.0195 0.019531 5.4531 2.4844 5.4297 5.5078-0.019531 3.0195-2.4844 5.4492-5.5078 5.4297z"/>
  <path d="m536.09 204.29h-0.066406l-40.633-0.51562v0.003906c-2.0039-0.027344-3.8359-1.1523-4.7695-2.9336-0.92969-1.7773-0.8125-3.9219 0.30859-5.5859l35.789-53.297-30.527-0.39453v-0.003906c-3.0195-0.019531-5.4531-2.4844-5.4297-5.5039 0.019531-3.0234 2.4844-5.4531 5.5039-5.4336h0.066406l40.621 0.52344v0.003906c2.0078 0.03125 3.832 1.1562 4.7617 2.9336 0.92969 1.7773 0.8125 3.9219-0.30859 5.5859l-35.766 53.297 30.527 0.38281c3.0195 0.023438 5.4492 2.4883 5.4297 5.5078-0.019531 3.0195-2.4883 5.4531-5.5078 5.4297z"/>
  <path d="m612.5 546.88h-525c-3.0195 0-5.4688-2.4492-5.4688-5.4688v-227.5c0-3.0195 2.4492-5.4688 5.4688-5.4688h525c1.4492 0 2.8398 0.57422 3.8672 1.6016 1.0273 1.0273 1.6016 2.418 1.6016 3.8672v227.5c0 1.4492-0.57422 2.8398-1.6016 3.8672-1.0273 1.0273-2.418 1.6016-3.8672 1.6016zm-519.53-10.938h514.06v-216.56h-514.06z"/>
  <path d="m612.5 251.56h-66.512c-3.0195 0-5.4688-2.4492-5.4688-5.4688s2.4492-5.4688 5.4688-5.4688h61.043v-216.56h-514.06v216.56h259.11c3.0195 0 5.4688 2.4492 5.4688 5.4688s-2.4492 5.4688-5.4688 5.4688h-264.58c-3.0195 0-5.4688-2.4492-5.4688-5.4688v-227.5c0-3.0195 2.4492-5.4688 5.4688-5.4688h525c1.4492 0 2.8398 0.57422 3.8672 1.6016 1.0273 1.0273 1.6016 2.418 1.6016 3.8672v227.5c0 1.4492-0.57422 2.8398-1.6016 3.8672-1.0273 1.0273-2.418 1.6016-3.8672 1.6016z"/>
  <path d="m163.98 251.56c-1.875 0.003906-3.6211-0.95312-4.625-2.5391-22.039-34.746-27.34-77.539-14.449-116.61 12.891-39.074 42.621-70.312 81.012-85.121 38.391-14.809 81.395-11.629 117.19 8.668 2.2969 1.3008 3.332 4.0586 2.4648 6.5508-0.86719 2.4922-3.3906 4.0117-5.9961 3.6094-28.855-4.4453-58.223 3.7578-80.598 22.508-22.379 18.754-35.59 46.234-36.262 75.418-0.67188 29.188 11.262 57.246 32.75 77.008 2.2227 2.0469 2.3711 5.5078 0.32812 7.7344-2.0469 2.2266-5.5078 2.3711-7.7344 0.32812-20.586-18.93-33.375-44.855-35.867-72.711-2.4883-27.855 5.4961-55.641 22.398-77.922 16.898-22.281 41.504-37.457 69-42.566 2.9766-0.55859 5.9492-0.98437 8.9375-1.3008l-0.003906-0.003906c-33.137-10.16-68.992-6.2734-99.184 10.746-30.191 17.023-52.074 45.688-60.535 79.301-8.457 33.609-2.7539 69.219 15.781 98.508 1.0703 1.6797 1.1367 3.8125 0.17969 5.5586s-2.7891 2.8359-4.7852 2.8398z"/>
  <path d="m568.75 77.656c-4.9297 0-9.6602-1.957-13.148-5.4453-3.4883-3.4883-5.4453-8.2188-5.4453-13.148s1.957-9.6602 5.4453-13.148c3.4883-3.4883 8.2188-5.4453 13.148-5.4453s9.6602 1.957 13.148 5.4453c3.4883 3.4883 5.4453 8.2188 5.4453 13.148s-1.957 9.6602-5.4453 13.148c-3.4883 3.4883-8.2188 5.4453-13.148 5.4453zm0-26.25c-3.0977 0-5.8867 1.8672-7.0742 4.7266-1.1836 2.8594-0.52734 6.1523 1.6602 8.3438 2.1914 2.1875 5.4844 2.8438 8.3438 1.6602 2.8594-1.1875 4.7266-3.9766 4.7266-7.0742 0-2.0312-0.80469-3.9766-2.2422-5.4141s-3.3828-2.2422-5.4141-2.2422z"/>
  <path d="m281.09 178.28c-4.9297 0-9.6602-1.957-13.148-5.4453-3.4883-3.4883-5.4453-8.2188-5.4453-13.148s1.957-9.6602 5.4453-13.148c3.4883-3.4883 8.2188-5.4453 13.148-5.4453s9.6602 1.957 13.148 5.4453c3.4883 3.4883 5.4453 8.2188 5.4453 13.148s-1.957 9.6602-5.4453 13.148c-3.4883 3.4883-8.2188 5.4453-13.148 5.4453zm0-26.25c-3.0977 0-5.8867 1.8672-7.0742 4.7266-1.1836 2.8594-0.52734 6.1523 1.6602 8.3438 2.1914 2.1875 5.4844 2.8438 8.3438 1.6602 2.8594-1.1875 4.7266-3.9766 4.7266-7.0742 0-2.0312-0.80469-3.9766-2.2422-5.4141s-3.3828-2.2422-5.4141-2.2422z"/>
  <path d="m132.34 90.781c-4.9297 0-9.6602-1.957-13.148-5.4453-3.4883-3.4883-5.4453-8.2188-5.4453-13.148s1.957-9.6602 5.4453-13.148c3.4883-3.4883 8.2188-5.4453 13.148-5.4453s9.6602 1.957 13.148 5.4453c3.4883 3.4883 5.4453 8.2188 5.4453 13.148s-1.957 9.6602-5.4453 13.148c-3.4883 3.4883-8.2188 5.4453-13.148 5.4453zm0-26.25c-3.0977 0-5.8867 1.8672-7.0742 4.7266-1.1836 2.8594-0.52734 6.1523 1.6602 8.3438 2.1914 2.1875 5.4844 2.8438 8.3438 1.6602 2.8594-1.1875 4.7266-3.9766 4.7266-7.0742 0-2.0312-0.80469-3.9766-2.2422-5.4141s-3.3828-2.2422-5.4141-2.2422z"/>
  <path d="m210 488.91c-3.0195 0-5.4688-2.4492-5.4688-5.4688v-19.754c0-3.0195 2.4492-5.4688 5.4688-5.4688s5.4688 2.4492 5.4688 5.4688v19.754c0 1.4492-0.57422 2.8398-1.6016 3.8672-1.0273 1.0273-2.418 1.6016-3.8672 1.6016z"/>
  <path d="m177.19 483.83c-0.50391 0-1.0039-0.066406-1.4883-0.19922-2.8945-0.83594-4.5703-3.8594-3.7383-6.7578l5.3477-19.02c0.81641-2.9102 3.8398-4.6055 6.7461-3.7852 2.9102 0.82031 4.6055 3.8398 3.7852 6.75l-5.3477 19.02c-0.66406 2.375-2.8398 4.0078-5.3047 3.9922z"/>
  <path d="m148.16 472.25c-2.0234 0.007812-3.8867-1.0938-4.8438-2.875-0.96094-1.7773-0.85938-3.9414 0.26172-5.625l10.816-16.527c0.78125-1.2383 2.0273-2.1094 3.4609-2.4219 1.4297-0.30859 2.9258-0.03125 4.1523 0.76953 1.2266 0.80078 2.0781 2.0586 2.3672 3.4961 0.29297 1.4336-0.007812 2.9258-0.82812 4.1406l-10.805 16.559c-1.0078 1.5508-2.7344 2.4844-4.582 2.4844z"/>
  <path d="m124.69 454.68c-2.2734 0.019531-4.3203-1.3633-5.1484-3.4805-0.82422-2.1172-0.25781-4.5234 1.4297-6.0469l13.562-12.426c2.2227-2.0469 5.6836-1.9062 7.7344 0.31641 2.0469 2.2227 1.9023 5.6875-0.32031 7.7344l-13.582 12.469c-1.0039 0.91797-2.3164 1.4297-3.6758 1.4336z"/>
  <path d="m111.25 432.47c-2.4688 0.003906-4.6328-1.6484-5.2812-4.0312-0.65234-2.3789 0.375-4.9023 2.5039-6.1523l13.441-7.8984v0.003906c2.5938-1.418 5.8438-0.51953 7.3398 2.0273 1.4961 2.5508 0.69531 5.8281-1.8047 7.3984l-13.441 7.8984h-0.003906c-0.83203 0.49609-1.7852 0.75781-2.7539 0.75391z"/>
  <path d="m244.51 483.83c-2.4453 0-4.5938-1.6289-5.2617-3.9805l-5.3477-19.02v-0.003906c-0.44922-1.4102-0.30469-2.9453 0.39844-4.25s1.9023-2.2695 3.332-2.6719c1.4258-0.39844 2.9531-0.20703 4.2344 0.53906 1.2812 0.74609 2.2031 1.9805 2.5586 3.4219l5.3477 19.008c0.39453 1.3984 0.21484 2.8945-0.49609 4.1602-0.70703 1.2656-1.8906 2.1953-3.2891 2.5898-0.48047 0.13281-0.97656 0.19922-1.4766 0.20703z"/>
  <path d="m273.58 472.25c-1.8477 0-3.5703-0.93359-4.582-2.4844l-10.805-16.527c-1.5977-2.5234-0.87109-5.8672 1.6289-7.5 2.5039-1.6367 5.8516-0.96094 7.5234 1.5195l10.809 16.492c1.6523 2.5273 0.94141 5.918-1.5859 7.5703-0.88281 0.59766-1.9219 0.92188-2.9883 0.92969z"/>
  <path d="m297.07 454.68c-1.3672 0-2.6875-0.51172-3.6992-1.4336l-13.582-12.469c-2.2305-2.0391-2.3828-5.5-0.34375-7.7266 2.0391-2.2305 5.4961-2.3828 7.7266-0.34375l13.605 12.445c1.6641 1.5234 2.2227 3.9102 1.4102 6.0117-0.81641 2.1055-2.8398 3.4922-5.0977 3.4922z"/>
  <path d="m310.49 432.47c-0.97266 0-1.9258-0.26172-2.7656-0.75391l-13.441-7.8984c-2.6055-1.5312-3.4727-4.8828-1.9414-7.4844 1.5312-2.6055 4.8828-3.4727 7.4844-1.9414l13.441 7.8984 0.003907-0.003906c2.125 1.25 3.1523 3.7734 2.5039 6.1523-0.65234 2.3828-2.8164 4.0352-5.2852 4.0312z"/>
  <path d="m490 488.91c-3.0195 0-5.4688-2.4492-5.4688-5.4688v-19.754c0-3.0195 2.4492-5.4688 5.4688-5.4688s5.4688 2.4492 5.4688 5.4688v19.754c0 1.4492-0.57422 2.8398-1.6016 3.8672-1.0273 1.0273-2.418 1.6016-3.8672 1.6016z"/>
  <path d="m457.19 483.83c-0.50391 0-1.0039-0.066406-1.4883-0.19922-1.3945-0.39062-2.5781-1.3242-3.2891-2.5898-0.71094-1.2656-0.88672-2.7617-0.49609-4.1562l5.3477-19.02h0.003906c0.81641-2.9102 3.8398-4.6055 6.7461-3.7852 2.9102 0.81641 4.6055 3.8398 3.7852 6.7461l-5.3477 19.02v0.003906c-0.66797 2.3516-2.8164 3.9805-5.2617 3.9805z"/>
  <path d="m428.16 472.25c-2.0117 0-3.8594-1.0977-4.8203-2.8672-0.95703-1.7695-0.86328-3.918 0.23828-5.6016l10.816-16.527v0.003906c0.78125-1.2383 2.0273-2.1133 3.4609-2.4219 1.4297-0.3125 2.9258-0.035157 4.1523 0.76562 1.2266 0.80078 2.0781 2.0625 2.3672 3.4961 0.29297 1.4375-0.007812 2.9258-0.82812 4.1406l-10.805 16.527c-1.0078 1.5508-2.7344 2.4844-4.582 2.4844z"/>
  <path d="m404.69 454.68c-2.2734 0.019531-4.3203-1.3633-5.1484-3.4805-0.82422-2.1172-0.25781-4.5234 1.4297-6.0469l13.562-12.426c2.2305-2.0391 5.6875-1.8828 7.7266 0.34375 2.0391 2.2305 1.8867 5.6914-0.34375 7.7305l-13.551 12.445c-1.0039 0.91797-2.3164 1.4297-3.6758 1.4336z"/>
  <path d="m391.25 432.47c-2.4688 0.003906-4.6328-1.6484-5.2812-4.0312-0.65234-2.3789 0.375-4.9023 2.5039-6.1523l13.441-7.8984v0.003906c2.5938-1.418 5.8438-0.51953 7.3398 2.0273 1.4961 2.5508 0.69531 5.8281-1.8047 7.3984l-13.441 7.8984h-0.003906c-0.83203 0.49609-1.7852 0.75781-2.7539 0.75391z"/>
  <path d="m524.51 483.83c-2.4453 0-4.5938-1.6289-5.2617-3.9805l-5.3477-19.02v-0.003906c-0.44922-1.4102-0.30469-2.9453 0.39844-4.25s1.9023-2.2695 3.332-2.6719c1.4258-0.39844 2.9531-0.20703 4.2344 0.53906 1.2812 0.74609 2.2031 1.9805 2.5586 3.4219l5.3477 19.008c0.39453 1.3984 0.21484 2.8945-0.49609 4.1602-0.70703 1.2656-1.8906 2.1953-3.2891 2.5898-0.48047 0.13281-0.97656 0.19922-1.4766 0.20703z"/>
  <path d="m553.58 472.25c-1.8477 0-3.5703-0.93359-4.582-2.4844l-10.805-16.527c-1.5977-2.5234-0.87109-5.8672 1.6289-7.5 2.5039-1.6367 5.8516-0.96094 7.5234 1.5195l10.809 16.492c1.6523 2.5273 0.94141 5.918-1.5859 7.5703-0.88281 0.59766-1.9219 0.92188-2.9883 0.92969z"/>
  <path d="m577.07 454.68c-1.3672 0-2.6875-0.51172-3.6992-1.4336l-13.582-12.469c-2.2305-2.0391-2.3828-5.5-0.34375-7.7266 2.0391-2.2305 5.4961-2.3828 7.7266-0.34375l13.605 12.445c1.6641 1.5234 2.2227 3.9102 1.4102 6.0117-0.81641 2.1055-2.8398 3.4922-5.0977 3.4922z"/>
  <path d="m590.49 432.47c-0.97266 0-1.9258-0.26172-2.7656-0.75391l-13.441-7.8984c-2.6055-1.5312-3.4727-4.8828-1.9414-7.4844 1.5312-2.6055 4.8828-3.4727 7.4844-1.9414l13.441 7.8984 0.003907-0.003906c2.125 1.25 3.1523 3.7734 2.5039 6.1523-0.65234 2.3828-2.8164 4.0352-5.2852 4.0312z"/>
  <use x="70" y="576.40625" xlink:href="#t"/>
  <!-- <use x="74.011719" y="576.40625" xlink:href="#d"/>
  <use x="76.710938" y="576.40625" xlink:href="#a"/>
  <use x="80.417969" y="576.40625" xlink:href="#j"/>
  <use x="84.109375" y="576.40625" xlink:href="#c"/>
  <use x="86.722656" y="576.40625" xlink:href="#a"/>
  <use x="90.433594" y="576.40625" xlink:href="#i"/>
  <use x="96.25" y="576.40625" xlink:href="#h"/>
  <use x="100.167969" y="576.40625" xlink:href="#g"/>
  <use x="105.636719" y="576.40625" xlink:href="#f"/>
  <use x="107.667969" y="576.40625" xlink:href="#s"/>
  <use x="109.542969" y="576.40625" xlink:href="#e"/>
  <use x="113.4375" y="576.40625" xlink:href="#b"/>
  <use x="70" y="581.875" xlink:href="#r"/>
  <use x="72.378906" y="581.875" xlink:href="#d"/>
  <use x="75.078125" y="581.875" xlink:href="#b"/>
  <use x="78.832031" y="581.875" xlink:href="#q"/>
  <use x="86.4375" y="581.875" xlink:href="#c"/>
  <use x="89.050781" y="581.875" xlink:href="#p"/>
  <use x="92.941406" y="581.875" xlink:href="#a"/>
  <use x="98.554688" y="581.875" xlink:href="#o"/>
  <use x="103.132812" y="581.875" xlink:href="#b"/>
  <use x="106.890625" y="581.875" xlink:href="#n"/>
  <use x="110.785156" y="581.875" xlink:href="#e"/>
  <use x="116.582031" y="581.875" xlink:href="#m"/>
  <use x="120.589844" y="581.875" xlink:href="#d"/>
  <use x="123.285156" y="581.875" xlink:href="#b"/>
  <use x="127.042969" y="581.875" xlink:href="#l"/>
  <use x="128.917969" y="581.875" xlink:href="#a"/>
  <use x="132.625" y="581.875" xlink:href="#k"/>
  <use x="135.867188" y="581.875" xlink:href="#c"/> -->
 </g>
</svg>
