<?xml version="1.0" encoding="UTF-8"?>
<svg width="700pt" height="300pt" version="1.1" viewBox="0 185 700 200" xmlns="http://www.w3.org/2000/svg" xmlns:xlink="http://www.w3.org/1999/xlink">
 <g>
  <path d="m626.12 288.11c-2.5781-6.9062-31.188-44.688-43.133-56.93-16-16.395-35.082-31.164-58.309-45.164-14.152-8.5117-29.559-15.82-45.766-21.73-31.938-11.668-65.137-17.625-98.707-17.711-4.2695 0-58.879 5.2305-76.961 9.9922-38.363 10.137-73.324 27.848-103.85 52.676l-5.6367 4.6719c-5.7617 4.8359-16.148 13.559-20.238 14.961-8.6445-8.1914-17.574-16.66-30.18-20.789-23.527-7.6914-45.789-4.5039-65.914 9.3594-2.3867 1.6484-8.75 6.0078-4.418 14.129 5.3594 10.031 11.645 17.719 19.164 23.488 12.277 9.3984 22.941 13.957 34.641 14.793 0.21484 0.011719 0.41797 0.03125 0.58594 0.054687-0.050782 0.41797-0.10938 1.0039-0.26562 1.8164-5.4453 28.355 6.2578 50.043 11.539 58.051 6.6406 10.148 16.109 11.156 24.289 2.4375 1.5508-1.6367 3.125-3.1875 4.7148-4.75 3.4766-3.3789 7.0234-6.8633 10.172-11.238 15.004-21.059 12.457-42.758 11.094-54.414-0.22656-1.8633-0.48047-4.0625-0.52344-5.4336 17.496-10 36.074-14.355 56.879-13.336 17.852 0.86328 33.242 5.2617 47.051 13.457 17.746 10.555 31.809 25.625 42.941 46.062 1.7891 3.25 1.6914 4.2227 1.6133 4.4375-0.078125 0.28125-0.76172 1.0352-2.707 1.9258l-2.1602 1.0156c-8.75 4.0977-17.016 7.9688-26.066 10.281-7.4336 1.9141-15.543 2.7695-26.312 2.7695-3.4023 0-6.8789-0.085938-10.449-0.20313l-10.117-0.30859 5.6367 8.3945c9.6367 14.352 20.949 23.797 35.637 29.703 7.7852 3.1445 16.586 4.8008 25.473 4.8008 17.746 0 34.574-6.3398 46.191-17.383 1.8633-1.7656 2.543-1.7891 2.543-1.7891 0.050781 0 0.68359 0.023438 2.332 1.3828 12.012 9.9141 24.66 17.391 37.613 22.184 1.1523 0.44141 1.6484 0.76953 1.7656 0.76953-0.023437 0.25781-0.097656 0.97656-0.64062 2.4375-4.3711 11.785-12.012 21.434-24.836 31.285l-8.2148 6.3242 10.008 2.793c1.0039 0.27734 1.8633 0.55859 2.6016 0.80078 1.7422 0.57812 3.3906 1.1133 5.2969 1.1367l1.3398 0.011719c19.637 0 35.691-5.457 49.059-16.66 1.9766-1.668 4.4297-4.457 7.0469-7.4023 2.1055-2.3984 5.4727-6.2344 7.1758-7.5703 8.0625 0.88672 14.426 1.293 21.328 1.293h0.097656c18.02-0.14063 34.953-2.6172 51.828-7.5391 15.809-4.6445 31.477-11.871 46.578-21.473 10.652-6.7695 20.898-15.402 32.191-27.164 10.738-11.191 14.191-26.797 8.9805-40.707z"/>
  <use x="70" y="652.308594" xlink:href="#u"/>
  <use x="92.582031" y="652.308594" xlink:href="#d"/>
  <use x="107.753906" y="652.308594" xlink:href="#c"/>
  <use x="128.625" y="652.308594" xlink:href="#m"/>
  <use x="149.386719" y="652.308594" xlink:href="#b"/>
  <use x="164.09375" y="652.308594" xlink:href="#c"/>
  <use x="184.964844" y="652.308594" xlink:href="#l"/>
  <use x="217.703125" y="652.308594" xlink:href="#k"/>
  <use x="239.726562" y="652.308594" xlink:href="#j"/>
  <use x="270.496094" y="652.308594" xlink:href="#i"/>
  <use x="281.945312" y="652.308594" xlink:href="#h"/>
  <use x="300.183594" y="652.308594" xlink:href="#a"/>
  <use x="321.320312" y="652.308594" xlink:href="#g"/>
  <use x="343.226562" y="652.308594" xlink:href="#f"/>
  <use x="361.542969" y="652.308594" xlink:href="#t"/>
  <use x="386.796875" y="652.308594" xlink:href="#e"/>
  <use x="408.703125" y="652.308594" xlink:href="#a"/>
  <use x="429.839844" y="652.308594" xlink:href="#f"/>
  <use x="448.15625" y="652.308594" xlink:href="#b"/>
  <use x="70" y="683.078125" xlink:href="#s"/>
  <use x="83.386719" y="683.078125" xlink:href="#d"/>
  <use x="98.5625" y="683.078125" xlink:href="#a"/>
  <use x="119.699219" y="683.078125" xlink:href="#r"/>
  <use x="162.472656" y="683.078125" xlink:href="#b"/>
  <use x="177.179688" y="683.078125" xlink:href="#e"/>
  <use x="199.085937" y="683.078125" xlink:href="#c"/>
  <use x="230.667969" y="683.078125" xlink:href="#q"/>
  <use x="256.417969" y="683.078125" xlink:href="#a"/>
  <use x="277.558594" y="683.078125" xlink:href="#p"/>
  <use x="299.460938" y="683.078125" xlink:href="#g"/>
  <use x="332.078125" y="683.078125" xlink:href="#o"/>
  <use x="354.628906" y="683.078125" xlink:href="#d"/>
  <use x="369.804688" y="683.078125" xlink:href="#a"/>
  <use x="390.945312" y="683.078125" xlink:href="#n"/>
  <use x="401.492187" y="683.078125" xlink:href="#c"/>
  <use x="422.359375" y="683.078125" xlink:href="#h"/>
  <use x="440.597656" y="683.078125" xlink:href="#b"/>
 </g>
</svg>
